<svg height="512" viewBox="0 0 64 64" width="512" xmlns="http://www.w3.org/2000/svg"><g id="book-Reading-glasses-2" data-name="book-Reading-glasses"><path d="m3 22h58v37h-58z" fill="#64c37d"/><path d="m57 18v37h-21a4 4 0 0 0 -4 4v-37a4 4 0 0 1 4-4z" fill="#ffdaaa"/><path d="m32 22v37a4 4 0 0 0 -4-4h-21v-37h21a4 4 0 0 1 4 4z" fill="#ffb655"/><g fill="#1a6fb0"><path d="m10 23h19v2h-19z"/><path d="m10 28h4v2h-4z"/><path d="m16 28h13v2h-13z"/><path d="m10 33h6v2h-6z"/><path d="m18 33h11v2h-11z"/><path d="m10 38h19v2h-19z"/><path d="m10 43h2v2h-2z"/><path d="m14 43h14v2h-14z"/><path d="m10 48h10v2h-10z"/><path d="m23 48h5v2h-5z"/><path d="m35 48h19v2h-19z"/><path d="m35 43h5v2h-5z"/><path d="m42 43h12v2h-12z"/><path d="m35 38h7v2h-7z"/><path d="m44 38h10v2h-10z"/><path d="m35 33h19v2h-19z"/><path d="m35 28h4v2h-4z"/><path d="m41 28h13v2h-13z"/><path d="m35 23h11v2h-11z"/><path d="m48 23h6v2h-6z"/></g><path d="m57.99 12.86a1.006 1.006 0 0 1 -.23.8 1.037 1.037 0 0 1 -.76.34h-21a2 2 0 0 1 -2-2v-1.878a2.087 2.087 0 0 0 -1.658-2.093 2.005 2.005 0 0 0 -2.342 1.971v2a2 2 0 0 1 -2 2h-21a1.037 1.037 0 0 1 -.76-.34 1.006 1.006 0 0 1 -.23-.8l1-7a1 1 0 0 1 .99-.86h2v2h-1.13l-.72 5h19.85v-1.83a4.115 4.115 0 0 1 3.609-4.151 4 4 0 0 1 4.391 3.981v2h19.85l-.72-5h-1.13v-2h2a1 1 0 0 1 .992.86z" fill="#c0ab91"/><circle cx="21" cy="13" fill="#bdfdff" r="8"/><path d="m18 13h-2a5.006 5.006 0 0 1 5-5v2a3 3 0 0 0 -3 3z" fill="#fff"/><circle cx="43" cy="13" fill="#bdfdff" r="8"/><path d="m40 13h-2a5.006 5.006 0 0 1 5-5v2a3 3 0 0 0 -3 3z" fill="#fff"/></g></svg>